<svg xmlns="http://www.w3.org/2000/svg" xmlns:xlink="http://www.w3.org/1999/xlink" version="1.1" id="Layer_1" x="0px" y="0px" viewBox="0 0 512 512" style="enable-background:new 0 0 512 512;" xml:space="preserve" width="512" height="512" class=""><g><polygon style="fill:#FFDCA9" points="411.826,77.913 411.826,0 389.565,0 378.435,0 133.565,0 100.174,0 100.174,77.913 0,77.913   0,111.304 0,211.478 33.391,211.478 33.391,244.87 66.783,244.87 66.783,278.261 100.174,278.261 100.174,311.652 133.565,311.652   133.565,345.043 166.957,345.043 166.957,378.435 200.348,378.435 200.348,411.826 133.565,411.826 133.565,445.217   100.174,445.217 100.174,478.609 100.174,478.609 100.174,512 100.174,512 133.565,512 378.435,512 411.826,512 411.826,445.217   378.435,445.217 378.435,411.826 311.652,411.826 311.652,378.435 345.043,378.435 345.043,345.043 378.435,345.043   378.435,311.652 389.565,311.652 411.826,311.652 411.826,278.261 445.217,278.261 445.217,244.87 478.609,244.87 478.609,211.478   512,211.478 512,111.304 512,77.913 " data-original="#FFDE46" class="active-path" data-old_color="#FFDE46"></polygon><g>
	<polygon style="fill:#FFFFFF;" points="166.957,0 155.826,0 133.565,0 100.174,0 100.174,111.304 133.565,111.304 133.565,144.696    166.957,144.696 166.957,66.783 411.826,66.783 411.826,0  " data-original="#FFFFFF" class=""></polygon>
	<rect x="100.174" y="178.087" style="fill:#FFFFFF;" width="66.783" height="33.391" data-original="#FFFFFF" class=""></rect>
</g><rect x="133.565" y="311.652" width="33.391" height="33.391" data-original="#000000" class="" style="fill:#FFBD5C" data-old_color="#000000"></rect><polygon points="200.348,378.435 200.348,411.826 133.565,411.826 133.565,445.217 200.348,445.217 222.609,445.217   233.739,445.217 233.739,378.435 233.739,345.043 200.348,345.043 166.957,345.043 166.957,378.435 " data-original="#000000" class="" style="fill:#FFBD5C" data-old_color="#000000"></polygon><rect x="33.391" y="211.478" width="33.391" height="33.391" data-original="#000000" class="" style="fill:#FFBD5C" data-old_color="#000000"></rect><polygon points="100.174,278.261 100.174,311.652 133.565,311.652 133.565,278.261 133.565,244.87 100.174,244.87 66.783,244.87   66.783,278.261 " data-original="#000000" class="" style="fill:#FFBD5C" data-old_color="#000000"></polygon><polygon points="133.565,211.478 133.565,144.696 100.174,144.696 66.783,144.696 66.783,178.087 100.174,178.087 100.174,211.478   " data-original="#000000" class="" style="fill:#FFBD5C" data-old_color="#000000"></polygon><polygon points="378.435,478.609 133.565,478.609 133.565,445.217 100.174,445.217 100.174,478.609 100.174,478.609 100.174,512   100.174,512 100.174,512 133.565,512 133.565,512 378.435,512 378.435,512 411.826,512 411.826,445.217 378.435,445.217 " data-original="#000000" class="" style="fill:#FFBD5C" data-old_color="#000000"></polygon><rect x="345.043" y="311.652" width="33.391" height="33.391" data-original="#000000" class="" style="fill:#FFBD5C" data-old_color="#000000"></rect><polygon points="278.261,345.043 278.261,378.435 278.261,445.217 289.391,445.217 311.652,445.217 378.435,445.217   378.435,411.826 311.652,411.826 311.652,378.435 345.043,378.435 345.043,345.043 311.652,345.043 " data-original="#000000" class="" style="fill:#FFBD5C" data-old_color="#000000"></polygon><rect x="445.217" y="211.478" width="33.391" height="33.391" data-original="#000000" class="" style="fill:#FFBD5C" data-old_color="#000000"></rect><polygon points="411.826,178.087 445.217,178.087 445.217,144.696 411.826,144.696 378.435,144.696 378.435,211.478   411.826,211.478 " data-original="#000000" class="" style="fill:#FFBD5C" data-old_color="#000000"></polygon><polygon points="378.435,244.87 378.435,278.261 378.435,311.652 411.826,311.652 411.826,278.261 445.217,278.261 445.217,244.87   411.826,244.87 " data-original="#000000" class="" style="fill:#FFBD5C" data-old_color="#000000"></polygon><polygon points="478.609,77.913 411.826,77.913 411.826,0 389.565,0 378.435,0 133.565,0 100.174,0 100.174,33.391 100.174,77.913   33.391,77.913 0,77.913 0,111.304 0,211.478 33.391,211.478 33.391,111.304 100.174,111.304 133.565,111.304 133.565,77.913   133.565,33.391 378.435,33.391 378.435,77.913 378.435,111.304 411.826,111.304 478.609,111.304 478.609,211.478 512,211.478   512,111.304 512,77.913 " data-original="#000000" class="" style="fill:#FFBD5C" data-old_color="#000000"></polygon></g> </svg>