<?xml version="1.0"?>
<svg xmlns="http://www.w3.org/2000/svg" xmlns:xlink="http://www.w3.org/1999/xlink" version="1.1" id="Layer_1" x="0px" y="0px" viewBox="0 0 512 512" style="enable-background:new 0 0 512 512;" xml:space="preserve" width="512px" height="512px" class=""><g><polygon style="fill:#F7B5E7" points="478.609,272.696 512,272.696 512,128 478.609,128 478.609,94.609 445.217,94.609   445.217,61.217 322.783,61.217 322.783,94.609 189.217,94.609 189.217,61.217 66.783,61.217 66.783,94.609 33.391,94.609   33.391,128 0,128 0,272.696 33.391,272.696 33.391,339.478 0,339.478 0,406.261 122.435,406.261 122.435,450.783 389.565,450.783   389.565,406.261 512,406.261 512,339.478 478.609,339.478 " data-original="#FF9811" class="active-path" data-old_color="#FF9811"/><polygon style="fill:#F7B5E7" points="389.565,306.087 389.565,161.391 356.174,161.391 356.174,128 322.783,128 322.783,94.609   189.217,94.609 189.217,128 155.826,128 155.826,161.391 122.435,161.391 122.435,306.087 155.826,306.087 155.826,372.87   122.435,372.87 122.435,450.783 389.565,450.783 389.565,372.87 356.174,372.87 356.174,306.087 " data-original="#FFDA44" class="" data-old_color="#FFDA44"/><g>
	<polygon style="fill:#FFFFFF;" points="189.217,94.609 189.217,128 155.826,128 155.826,161.391 122.435,161.391 122.435,194.783    189.217,194.783 189.217,161.391 222.609,161.391 222.609,94.609  " data-original="#FFFFFF" class=""/>
	<polygon style="fill:#FFFFFF;" points="66.783,61.217 66.783,94.609 33.391,94.609 33.391,128 0,128 0,161.391 66.783,161.391    66.783,128 100.174,128 100.174,61.217  " data-original="#FFFFFF" class=""/>
</g><rect x="122.435" y="161.391" width="33.391" height="144.696" data-original="#000000" class="" style="fill:#D9A1D4" data-old_color="#000000"/><rect x="356.174" y="161.391" width="33.391" height="144.696" data-original="#000000" class="" style="fill:#D9A1D4" data-old_color="#000000"/><rect x="189.217" y="94.609" width="133.565" height="33.391" data-original="#000000" class="" style="fill:#D9A1D4" data-old_color="#000000"/><rect x="155.826" y="128" width="33.391" height="33.391" data-original="#000000" class="" style="fill:#D9A1D4" data-old_color="#000000"/><rect x="322.783" y="128" width="33.391" height="33.391" data-original="#000000" class="" style="fill:#D9A1D4" data-old_color="#000000"/><polygon points="322.783,339.478 289.391,339.478 289.391,372.87 356.174,372.87 356.174,306.087 322.783,306.087 " data-original="#000000" class="" style="fill:#D9A1D4" data-old_color="#000000"/><polygon points="222.609,372.87 222.609,339.478 189.217,339.478 189.217,306.087 155.826,306.087 155.826,372.87 " data-original="#000000" class="" style="fill:#D9A1D4" data-old_color="#000000"/><rect y="128" width="33.391" height="144.696" data-original="#000000" class="" style="fill:#D9A1D4" data-old_color="#000000"/><rect x="66.783" y="61.217" width="122.435" height="33.391" data-original="#000000" class="" style="fill:#D9A1D4" data-old_color="#000000"/><rect x="33.391" y="94.609" width="33.391" height="33.391" data-original="#000000" class="" style="fill:#D9A1D4" data-old_color="#000000"/><polygon points="89.043,339.478 89.043,306.087 66.783,306.087 66.783,272.696 33.391,272.696 33.391,339.478 " data-original="#000000" class="" style="fill:#D9A1D4" data-old_color="#000000"/><rect x="478.609" y="128" width="33.391" height="144.696" data-original="#000000" class="" style="fill:#D9A1D4" data-old_color="#000000"/><rect x="445.217" y="94.609" width="33.391" height="33.391" data-original="#000000" class="" style="fill:#D9A1D4" data-old_color="#000000"/><rect x="322.783" y="61.217" width="122.435" height="33.391" data-original="#000000" class="" style="fill:#D9A1D4" data-old_color="#000000"/><polygon points="478.609,272.696 445.217,272.696 445.217,306.087 411.826,306.087 411.826,339.478 478.609,339.478 " data-original="#000000" class="" style="fill:#D9A1D4" data-old_color="#000000"/><polygon points="356.174,372.87 356.174,417.391 155.826,417.391 155.826,372.87 33.391,372.87 33.391,339.478 0,339.478 0,406.261   122.435,406.261 122.435,450.783 389.565,450.783 389.565,406.261 512,406.261 512,339.478 478.609,339.478 478.609,372.87 " data-original="#000000" class="" style="fill:#D9A1D4" data-old_color="#000000"/></g> </svg>
