<?xml version="1.0"?>
<svg xmlns="http://www.w3.org/2000/svg" xmlns:xlink="http://www.w3.org/1999/xlink" version="1.1" id="Layer_1" x="0px" y="0px" viewBox="0 0 512 512" style="enable-background:new 0 0 512 512;" xml:space="preserve" width="512px" height="512px" class=""><g><polygon style="fill:#BEEBE9" points="400.696,33.391 400.696,0 111.304,0 111.304,33.391 77.913,33.391 77.913,478.609   111.304,478.609 111.304,512 400.696,512 400.696,478.609 434.087,478.609 434.087,33.391 " data-original="#F490C0" class="active-path" data-old_color="#F490C0"/><rect x="144.696" y="66.783" style="fill:#8EBCBA" width="222.609" height="311.652" data-original="#004FAC" class="" data-old_color="#004FAC"/><g>
	<rect x="144.696" y="133.565" style="fill:#FFFFFF;" width="66.783" height="33.391" data-original="#FFFFFF" class=""/>
	<rect x="211.478" y="66.783" style="fill:#FFFFFF;" width="33.391" height="66.783" data-original="#FFFFFF" class=""/>
	<rect x="200.348" y="311.652" style="fill:#FFFFFF;" width="33.391" height="66.783" data-original="#FFFFFF" class=""/>
	<rect x="233.739" y="278.261" style="fill:#FFFFFF;" width="33.391" height="33.391" data-original="#FFFFFF" class=""/>
	<rect x="300.522" y="211.478" style="fill:#FFFFFF;" width="66.783" height="33.391" data-original="#FFFFFF" class=""/>
	<rect x="267.13" y="244.87" style="fill:#FFFFFF;" width="33.391" height="33.391" data-original="#FFFFFF" class=""/>
</g><rect x="77.913" y="33.391" width="33.391" height="445.217" data-original="#000000" class="" style="fill:#99C8C6" data-old_color="#000000"/><rect x="400.696" y="33.391" width="33.391" height="445.217" data-original="#000000" class="" style="fill:#99C8C6" data-old_color="#000000"/><rect x="111.304" width="289.391" height="33.391" data-original="#000000" class="" style="fill:#99C8C6" data-old_color="#000000"/><path d="M144.696,66.783v311.652h222.609V66.783H144.696z M333.913,345.043H178.087v-244.87h155.826V345.043z" data-original="#000000" class="" style="fill:#99C8C6" data-old_color="#000000"/><rect x="111.304" y="478.609" width="289.391" height="33.391" data-original="#000000" class="" style="fill:#99C8C6" data-old_color="#000000"/><rect x="233.739" y="411.826" width="44.522" height="33.391" data-original="#000000" class="" style="fill:#99C8C6" data-old_color="#000000"/></g> </svg>
