<?xml version="1.0"?>
<svg xmlns="http://www.w3.org/2000/svg" xmlns:xlink="http://www.w3.org/1999/xlink" version="1.1" id="Layer_1" x="0px" y="0px" viewBox="0 0 512 512" style="enable-background:new 0 0 512 512;" xml:space="preserve" width="512px" height="512px" class=""><g><polygon style="fill:#C5F1C5" points="506.435,200.348 473.043,200.348 473.043,166.957 439.652,166.957 439.652,133.565   384,133.565 384,66.783 350.609,66.783 350.609,33.391 317.217,33.391 317.217,0 194.783,0 194.783,33.391 161.391,33.391   161.391,66.783 128,66.783 128,133.565 72.348,133.565 72.348,166.957 38.957,166.957 38.957,200.348 5.565,200.348 5.565,300.522   38.957,300.522 38.957,333.913 72.348,333.913 72.348,367.304 194.783,367.304 194.783,478.609 228.174,478.609 228.174,512   283.826,512 283.826,478.609 317.217,478.609 317.217,367.304 439.652,367.304 439.652,333.913 473.043,333.913 473.043,300.522   506.435,300.522 " data-original="#47821C" class="" data-old_color="#47821C"/><polygon style="fill:#BFA787" points="317.217,233.739 194.783,233.739 194.783,478.609 228.174,478.609 228.174,512 283.826,512   283.826,478.609 317.217,478.609 " data-original="#9CDD05" class="" data-old_color="#9CDD05"/><rect x="194.783" width="122.435" height="33.391" data-original="#000000" class="active-path" style="fill:#8EBF8E" data-old_color="#000000"/><rect x="317.217" y="33.391" width="33.391" height="33.391" data-original="#000000" class="active-path" style="fill:#8EBF8E" data-old_color="#000000"/><polygon points="350.609,166.957 439.652,166.957 439.652,133.565 384,133.565 384,66.783 350.609,66.783 " data-original="#000000" class="active-path" style="fill:#8EBF8E" data-old_color="#000000"/><rect x="317.217" y="166.957" width="33.391" height="33.391" data-original="#000000" class="active-path" style="fill:#8EBF8E" data-old_color="#000000"/><rect x="239.304" y="133.565" width="33.391" height="133.565" data-original="#000000" class="active-path" style="fill:#8EBF8E" data-old_color="#000000"/><rect x="317.217" y="267.13" width="33.391" height="33.391" data-original="#000000" class="active-path" style="fill:#8EBF8E" data-old_color="#000000"/><rect x="350.609" y="233.739" width="33.391" height="33.391" data-original="#000000" class="active-path" style="fill:#8EBF8E" data-old_color="#000000"/><polygon points="317.217,300.522 283.826,300.522 283.826,478.609 317.217,478.609 317.217,367.304 439.652,367.304   439.652,333.913 317.217,333.913 " data-original="#000000" class="active-path" style="fill:#8EBF8E" data-old_color="#000000"/><rect x="228.174" y="478.609" width="55.652" height="33.391" data-original="#000000" class="active-path" style="fill:#8EBF8E" data-old_color="#000000"/><rect x="161.391" y="267.13" width="33.391" height="33.391" data-original="#000000" class="active-path" style="fill:#8EBF8E" data-old_color="#000000"/><rect x="128" y="233.739" width="33.391" height="33.391" data-original="#000000" class="active-path" style="fill:#8EBF8E" data-old_color="#000000"/><rect x="161.391" y="166.957" width="33.391" height="33.391" data-original="#000000" class="active-path" style="fill:#8EBF8E" data-old_color="#000000"/><polygon points="161.391,166.957 161.391,66.783 128,66.783 128,133.565 72.348,133.565 72.348,166.957 " data-original="#000000" class="active-path" style="fill:#8EBF8E" data-old_color="#000000"/><rect x="38.957" y="166.957" width="33.391" height="33.391" data-original="#000000" class="active-path" style="fill:#8EBF8E" data-old_color="#000000"/><rect x="5.565" y="200.348" width="33.391" height="100.174" data-original="#000000" class="active-path" style="fill:#8EBF8E" data-old_color="#000000"/><rect x="38.957" y="300.522" width="33.391" height="33.391" data-original="#000000" class="active-path" style="fill:#8EBF8E" data-old_color="#000000"/><polygon points="228.174,300.522 194.783,300.522 194.783,333.913 72.348,333.913 72.348,367.304 194.783,367.304 194.783,478.609   228.174,478.609 " data-original="#000000" class="active-path" style="fill:#8EBF8E" data-old_color="#000000"/><rect x="439.652" y="300.522" width="33.391" height="33.391" data-original="#000000" class="active-path" style="fill:#8EBF8E" data-old_color="#000000"/><rect x="439.652" y="166.957" width="33.391" height="33.391" data-original="#000000" class="active-path" style="fill:#8EBF8E" data-old_color="#000000"/><rect x="473.043" y="200.348" width="33.391" height="100.174" data-original="#000000" class="active-path" style="fill:#8EBF8E" data-old_color="#000000"/><rect x="161.391" y="33.391" width="33.391" height="33.391" data-original="#000000" class="active-path" style="fill:#8EBF8E" data-old_color="#000000"/></g> </svg>
