<?xml version="1.0"?>
<svg xmlns="http://www.w3.org/2000/svg" xmlns:xlink="http://www.w3.org/1999/xlink" version="1.1" id="Layer_1" x="0px" y="0px" viewBox="0 0 512 512" style="enable-background:new 0 0 512 512;" xml:space="preserve" width="512px" height="512px" class=""><g transform="matrix(-1 0 0 1 512 0)"><polygon style="fill:#E6E6E6" points="478.608,144.696 478.608,100.174 445.217,100.174 445.217,66.783 411.825,66.783   411.825,33.391 345.042,33.391 345.042,0 166.957,0 166.957,33.391 100.173,33.391 100.173,66.783 66.781,66.783 66.781,100.174   33.391,100.174 33.391,144.696 0,144.696 0,300.522 33.391,300.522 33.391,345.043 66.781,345.043 66.781,378.435 100.174,378.435   100.173,445.217 66.783,445.217 66.783,512 267.13,512 267.13,478.609 345.042,478.609 345.042,445.217 411.825,445.217   411.825,411.826 445.216,411.826 445.216,378.435 478.608,378.435 478.608,333.913 512,333.913 512,144.696 " data-original="#BDDBFF" class="active-path" data-old_color="#BDDBFF"/><polygon points="66.781,345.043 66.781,300.522 33.391,300.522 33.391,345.043 66.781,345.043 66.781,378.435 100.173,378.435   100.173,345.043 " data-original="#000000" class="" style="fill:#A4A4A4" data-old_color="#000000"/><polygon points="100.173,66.783 66.781,66.783 66.781,100.174 33.391,100.174 33.391,144.696 0,144.696 0,300.522 33.391,300.522   33.391,144.696 66.783,144.696 66.783,100.174 100.173,100.174 100.173,66.783 166.955,66.783 166.955,33.391 100.173,33.391 " data-original="#000000" class="" style="fill:#A4A4A4" data-old_color="#000000"/><polygon points="411.826,33.391 345.043,33.391 345.043,0 166.955,0 166.955,33.391 345.042,33.391 345.042,66.783 411.825,66.783   411.825,100.174 445.216,100.174 445.216,66.783 411.826,66.783 " data-original="#000000" class="" style="fill:#A4A4A4" data-old_color="#000000"/><polygon points="478.608,144.696 478.608,100.174 445.217,100.174 445.217,144.696 478.608,144.696 478.608,333.913 512,333.913   512,144.696 " data-original="#000000" class="" style="fill:#A4A4A4" data-old_color="#000000"/><rect x="445.217" y="333.913" width="33.39" height="44.522" data-original="#000000" class="" style="fill:#A4A4A4" data-old_color="#000000"/><polygon points="345.042,445.217 267.13,445.217 267.13,478.609 100.173,478.609 100.173,445.217 66.781,445.217 66.781,512   267.13,512 267.13,478.609 345.042,478.609 345.042,445.217 411.825,445.217 411.825,411.826 345.042,411.826 " data-original="#000000" class="" style="fill:#A4A4A4" data-old_color="#000000"/><polygon points="133.564,411.826 166.955,411.826 166.955,378.435 100.173,378.435 100.173,445.217 133.564,445.217 " data-original="#000000" class="" style="fill:#A4A4A4" data-old_color="#000000"/><rect x="411.826" y="378.435" width="33.391" height="33.391" data-original="#000000" class="" style="fill:#A4A4A4" data-old_color="#000000"/><rect x="233.739" y="100.174" width="44.522" height="44.522" data-original="#000000" class="" style="fill:#A4A4A4" data-old_color="#000000"/><rect x="233.739" y="178.087" width="44.522" height="166.957" data-original="#000000" class="" style="fill:#A4A4A4" data-old_color="#000000"/></g> </svg>
